<svg height="283.44" width="283.44" xmlns="http://www.w3.org/2000/svg">
  <path d="M204.442 212.806l-21.274-9.744c-.224 4.85.872 9.668.038 14.737-9.429 1.625-18.502 5.091-26.884 8.125-32.793-7.825-63.943-19.117-96.596-24.337-5.768-34.407-1.618-69.046-3.635-103.692 24.674-1.435 49.116-.841 73.61 1.503-.226-2.427 1.947-2.589 3.288-3.385 8.402-4.989 16.745-10.097 25.347-14.72 6.909-3.713 14.958-3.327 22.393-5.233 2.804-.719 5.662-1.23 8.64-1.866l7.901 18.373c13.143.603 26.033 1.47 39.188 3.655-2.204 36.252-2.147 72.279-2.354 108.051-9.978 2.729-19.741 4.914-29.662 8.533zm-79.522-66.923l-1.827-37.78-36.475-3.864 2.074 37.436c11.887 2.125 23.916 2.716 36.228 4.208zm32.358 2.014c0-12.749.004-25.206-.008-37.663-.001-.902-.705-.914-1.373-.929-3.475-.077-6.954-.096-10.425-.26-6.612-.312-13.219-.708-19.709-1.062l2.275 38.304 29.24 1.61zm-68.329-2.794a305.48 305.48 0 0 1 1.493 27.985c11.566 2.826 23.143 5.019 34.664 6.678v-30.663l-36.157-4zm35.553 68.797c.955-10.319.55-20.608.746-30.92-11.709-1.608-23.172-3.919-34.438-6.511V204.7l33.692 9.2zm-39.98-109.864c-8.437-.791-16.784-.656-25.171-2.64.122 12.586 1.309 24.89.493 37.648 8.852-.258 17.444 1.347 26.255 2.109l-1.577-37.117zm43.716 76.142l26.801 4.739 1.891-33.894-28.692-1.537v30.692zm-.627 34.573l27.658 8.039v-34.527l-26.971-4.847c-.04 10.607.105 20.952-.687 31.335zm32.727-105.376v37.92l21.031-3.411 2.574-38.241-23.605 3.732zm71.097 26.203c.665-11.804 1.666-23.457 1.376-35.464-9.018.021-17.857 1.16-26.568 2.614-.787 13.317 6.154 23.899 11.435 34.995 4.847-.078 9.252-1.247 13.757-2.145zM87.684 175.539c-9.419-1.277-18.148-4.84-27.697-5.681l2.368 28.731 25.329 4.972v-28.022zm127.24-36.445c-6.399-9.128-8.601-20.241-13.907-29.792-5.151.979-9.613 3.457-14.083 4.907-2.253 12.14-2.32 23.752 5.162 34.023 7.728-1.712 14.759-6.285 22.828-9.138zm-154.926 2.023c-.751 8.848-.416 17.524-.086 26.393 9.563-.039 18.319 3.519 27.575 4.838.102-9.362-.45-18.56-1.119-28.073l-26.37-3.158zm119.699 40.048c-.181-11.354.841-22.522 1.51-33.977l-20.947 3.129-1.849 34.928 21.286-4.08zm47.144-12.558c-2.891-9.009-7.701-17.359-11.143-26.493-7.92 2.698-14.836 7.482-23.688 8.613 5.605 8.191 7.265 17.512 11.493 25.756l23.338-7.876zm-39.635-91.053c-8.269 3.007-17.288 2.791-25.781 5.547l8.439 17.571 17.349.887v9.068l12.306-4.626-12.313-28.447zm-28.333 143.921c7.233-2.8 14.044-5.013 21.111-6.699-1.181-10.14-.273-20.13-.016-30.236l-21.096 3.852.001 33.083zm72.366-20.321V177.59c-8.603 1.072-17.118 2.663-25.243 4.841v25.96l25.243-7.237zm-46.288-59.877c-.862 15.905-2.513 31.168-1.402 46.849l17.141-9.939-15.739-36.91zm17.947 42.3c-6.918 2.67-13.261 5.352-19.626 8.66v7.776l19.626 8.997v-25.433zm-36.721-82.986l-7.857-16.745c-7.932 5.542-16.075 10.701-24.818 15.473 11.128 1.265 21.954.59 32.675 1.272zm65.398 69.152c-1.075-10.624.222-20.772.007-30.974l-12.779 2.161 12.772 28.813zM93.586 101.674c14.29.219 28.491 6.141 43.809.324-15.231.519-29.446-3.706-43.809-.324zm38.796 3.692c12.739.112 24.534 2.871 36.257-1.031-11.782-1.524-23.561-2.715-36.257 1.031zm68.424-4.511l23.351-3.919-25.594-1.934 2.243 5.853zM93.959 99.14c-8.74.02-16.293-.212-23.824.678 7.55-.608 15.161 2.72 23.824-.678zm137.408 71.949l-11.017 4.981 11.017-1.631v-3.35zM204.04 107.39l-.365-4.037-1.676-.115 2.041 4.152z"/>
</svg>
